<svg width="18" height="18" viewBox="0 0 18 18" fill="none" xmlns="http://www.w3.org/2000/svg">
<path d="M1.25 17.5C1.0375 17.5 0.859375 17.428 0.715625 17.2842C0.571875 17.1404 0.5 16.9622 0.5 16.7496C0.5 16.537 0.571875 16.3589 0.715625 16.2154C0.859375 16.0718 1.0375 16 1.25 16H16.75C16.9625 16 17.1406 16.0719 17.2843 16.2157C17.4281 16.3595 17.5 16.5377 17.5 16.7503C17.5 16.9629 17.4281 17.141 17.2843 17.2846C17.1406 17.4282 16.9625 17.5 16.75 17.5H1.25ZM1.25 13.625C1.0375 13.625 0.859375 13.553 0.715625 13.4092C0.571875 13.2654 0.5 13.0872 0.5 12.8746C0.5 12.662 0.571875 12.484 0.715625 12.3404C0.859375 12.1968 1.0375 12.125 1.25 12.125H10.75C10.9625 12.125 11.1406 12.1969 11.2843 12.3407C11.4281 12.4845 11.5 12.6627 11.5 12.8753C11.5 13.0879 11.4281 13.266 11.2843 13.4096C11.1406 13.5532 10.9625 13.625 10.75 13.625H1.25ZM1.25 9.74995C1.0375 9.74995 0.859375 9.67805 0.715625 9.53425C0.571875 9.39044 0.5 9.21223 0.5 8.99965C0.5 8.78705 0.571875 8.60896 0.715625 8.46538C0.859375 8.32179 1.0375 8.25 1.25 8.25H16.75C16.9625 8.25 17.1406 8.3219 17.2843 8.4657C17.4281 8.60952 17.5 8.78772 17.5 9.0003C17.5 9.2129 17.4281 9.39099 17.2843 9.53458C17.1406 9.67816 16.9625 9.74995 16.75 9.74995H1.25ZM1.25 5.87498C1.0375 5.87498 0.859375 5.80307 0.715625 5.65925C0.571875 5.51543 0.5 5.33723 0.5 5.12465C0.5 4.91205 0.571875 4.73396 0.715625 4.59038C0.859375 4.44679 1.0375 4.375 1.25 4.375H10.75C10.9625 4.375 11.1406 4.44691 11.2843 4.59073C11.4281 4.73453 11.5 4.91273 11.5 5.12533C11.5 5.33791 11.4281 5.51599 11.2843 5.65958C11.1406 5.80318 10.9625 5.87498 10.75 5.87498H1.25ZM1.25 1.99998C1.0375 1.99998 0.859375 1.92807 0.715625 1.78425C0.571875 1.64045 0.5 1.46225 0.5 1.24965C0.5 1.03707 0.571875 0.858984 0.715625 0.715401C0.859375 0.571801 1.0375 0.5 1.25 0.5H16.75C16.9625 0.5 17.1406 0.571909 17.2843 0.715726C17.4281 0.859542 17.5 1.03774 17.5 1.25033C17.5 1.46293 17.4281 1.64102 17.2843 1.7846C17.1406 1.92818 16.9625 1.99998 16.75 1.99998H1.25Z" fill="#8F95B2"/>
</svg>
