<svg width="18" height="16" viewBox="0 0 18 16" fill="none" xmlns="http://www.w3.org/2000/svg">
<path d="M7.05768 14.7493C6.84518 14.7493 6.66705 14.6774 6.5233 14.5336C6.37957 14.3898 6.3077 14.2116 6.3077 13.999C6.3077 13.7864 6.37957 13.6083 6.5233 13.4648C6.66705 13.3212 6.84518 13.2494 7.05768 13.2494H16.75C16.9625 13.2494 17.1406 13.3213 17.2843 13.4651C17.4281 13.6089 17.5 13.7871 17.5 13.9997C17.5 14.2123 17.4281 14.3904 17.2843 14.534C17.1406 14.6775 16.9625 14.7493 16.75 14.7493H7.05768ZM7.05768 8.74934C6.84518 8.74934 6.66705 8.67744 6.5233 8.53364C6.37957 8.38982 6.3077 8.21162 6.3077 7.99904C6.3077 7.78644 6.37957 7.60835 6.5233 7.46476C6.66705 7.32118 6.84518 7.24939 7.05768 7.24939H16.75C16.9625 7.24939 17.1406 7.32129 17.2843 7.46509C17.4281 7.6089 17.5 7.7871 17.5 7.99969C17.5 8.21229 17.4281 8.39038 17.2843 8.53396C17.1406 8.67755 16.9625 8.74934 16.75 8.74934H7.05768ZM7.05768 2.74934C6.84518 2.74934 6.66705 2.67744 6.5233 2.53364C6.37957 2.38982 6.3077 2.21162 6.3077 1.99904C6.3077 1.78644 6.37957 1.60835 6.5233 1.46476C6.66705 1.32118 6.84518 1.24939 7.05768 1.24939H16.75C16.9625 1.24939 17.1406 1.32129 17.2843 1.46509C17.4281 1.6089 17.5 1.7871 17.5 1.99969C17.5 2.21229 17.4281 2.39038 17.2843 2.53396C17.1406 2.67754 16.9625 2.74934 16.75 2.74934H7.05768ZM2.16345 15.6628C1.706 15.6628 1.3144 15.4999 0.98865 15.1742C0.662883 14.8484 0.5 14.4568 0.5 13.9994C0.5 13.5419 0.662883 13.1503 0.98865 12.8246C1.3144 12.4988 1.706 12.3359 2.16345 12.3359C2.6209 12.3359 3.0125 12.4988 3.33825 12.8246C3.664 13.1503 3.82687 13.5419 3.82687 13.9994C3.82687 14.4568 3.664 14.8484 3.33825 15.1742C3.0125 15.4999 2.6209 15.6628 2.16345 15.6628ZM2.16345 9.66279C1.706 9.66279 1.3144 9.49991 0.98865 9.17416C0.662883 8.84841 0.5 8.45681 0.5 7.99936C0.5 7.54191 0.662883 7.15031 0.98865 6.82456C1.3144 6.49881 1.706 6.33594 2.16345 6.33594C2.6209 6.33594 3.0125 6.49881 3.33825 6.82456C3.664 7.15031 3.82687 7.54191 3.82687 7.99936C3.82687 8.45681 3.664 8.84841 3.33825 9.17416C3.0125 9.49991 2.6209 9.66279 2.16345 9.66279ZM2.16345 3.66279C1.706 3.66279 1.3144 3.49991 0.98865 3.17416C0.662883 2.84841 0.5 2.45681 0.5 1.99936C0.5 1.54191 0.662883 1.15031 0.98865 0.824562C1.3144 0.498812 1.706 0.335938 2.16345 0.335938C2.6209 0.335938 3.0125 0.498812 3.33825 0.824562C3.664 1.15031 3.82687 1.54191 3.82687 1.99936C3.82687 2.45681 3.664 2.84841 3.33825 3.17416C3.0125 3.49991 2.6209 3.66279 2.16345 3.66279Z" fill="#8F95B2"/>
</svg>
