<svg width="18" height="20" viewBox="0 0 18 20" fill="none" xmlns="http://www.w3.org/2000/svg">
<path d="M1.09615 19.5C0.923933 19.5 0.781525 19.4437 0.668925 19.3312C0.556308 19.2186 0.5 19.0763 0.5 18.9043C0.5 18.7322 0.556308 18.5897 0.668925 18.4769C0.781525 18.3641 0.923933 18.3077 1.09615 18.3077H3V17.25H2.09615C1.92393 17.25 1.78152 17.1937 1.66892 17.0812C1.55631 16.9686 1.5 16.8263 1.5 16.6543C1.5 16.4822 1.55631 16.3397 1.66892 16.2269C1.78152 16.1141 1.92393 16.0577 2.09615 16.0577H3V15H1.09615C0.923933 15 0.781525 14.9437 0.668925 14.8312C0.556308 14.7186 0.5 14.5763 0.5 14.4043C0.5 14.2322 0.556308 14.0897 0.668925 13.9769C0.781525 13.8641 0.923933 13.8077 1.09615 13.8077H3.34615C3.5859 13.8077 3.78686 13.8887 3.94903 14.0509C4.11121 14.2131 4.1923 14.4141 4.1923 14.6538V15.8461C4.1923 16.0859 4.11121 16.2868 3.94903 16.449C3.78686 16.6112 3.5859 16.6923 3.34615 16.6923C3.5859 16.6923 3.78686 16.7733 3.94903 16.9355C4.11121 17.0977 4.1923 17.2987 4.1923 17.5384V18.6538C4.1923 18.8935 4.11121 19.0945 3.94903 19.2567C3.78686 19.4189 3.5859 19.5 3.34615 19.5H1.09615ZM1.1827 12.8461C0.991683 12.8461 0.830141 12.7801 0.698075 12.6481C0.566025 12.516 0.5 12.3545 0.5 12.1634V10.25C0.5 10.0102 0.581091 9.80929 0.743275 9.6471C0.905458 9.48492 1.10642 9.40383 1.34615 9.40383H3V8.34613H1.09615C0.923933 8.34613 0.781525 8.28986 0.668925 8.17733C0.556308 8.06481 0.5 7.92251 0.5 7.75043C0.5 7.57834 0.556308 7.43588 0.668925 7.32305C0.781525 7.21023 0.923933 7.15383 1.09615 7.15383H3.34615C3.5859 7.15383 3.78686 7.23492 3.94903 7.3971C4.11121 7.55928 4.1923 7.76024 4.1923 7.99998V9.74998C4.1923 9.98971 4.11121 10.1907 3.94903 10.3529C3.78686 10.515 3.5859 10.5961 3.34615 10.5961H1.6923V11.6538H3.59615C3.76837 11.6538 3.91078 11.7101 4.0234 11.8226C4.136 11.9351 4.1923 12.0774 4.1923 12.2495C4.1923 12.4216 4.136 12.5641 4.0234 12.6769C3.91078 12.7897 3.76837 12.8461 3.59615 12.8461H1.1827ZM2.5966 6.1923C2.42452 6.1923 2.28207 6.136 2.16925 6.0234C2.05642 5.91078 2 5.76837 2 5.59615V1.6923H1.09615C0.923933 1.6923 0.781525 1.63604 0.668925 1.52353C0.556308 1.41099 0.5 1.26868 0.5 1.0966C0.5 0.924517 0.556308 0.782067 0.668925 0.669251C0.781525 0.556417 0.923933 0.5 1.09615 0.5H2.51923C2.71024 0.5 2.87018 0.564425 2.99903 0.693275C3.12788 0.822125 3.1923 0.982059 3.1923 1.17308V5.59615C3.1923 5.76837 3.13604 5.91078 3.02352 6.0234C2.91099 6.136 2.76868 6.1923 2.5966 6.1923ZM7.05768 16.75C6.84518 16.75 6.66705 16.6781 6.5233 16.5343C6.37957 16.3904 6.3077 16.2122 6.3077 15.9997C6.3077 15.7871 6.37957 15.609 6.5233 15.4654C6.66705 15.3218 6.84518 15.25 7.05768 15.25H16.75C16.9625 15.25 17.1406 15.3219 17.2843 15.4657C17.4281 15.6095 17.5 15.7877 17.5 16.0003C17.5 16.2129 17.4281 16.391 17.2843 16.5346C17.1406 16.6782 16.9625 16.75 16.75 16.75H7.05768ZM7.05768 10.75C6.84518 10.75 6.66705 10.6781 6.5233 10.5343C6.37957 10.3904 6.3077 10.2122 6.3077 9.99965C6.3077 9.78705 6.37957 9.60896 6.5233 9.46538C6.66705 9.32179 6.84518 9.25 7.05768 9.25H16.75C16.9625 9.25 17.1406 9.3219 17.2843 9.4657C17.4281 9.60952 17.5 9.78772 17.5 10.0003C17.5 10.2129 17.4281 10.391 17.2843 10.5346C17.1406 10.6782 16.9625 10.75 16.75 10.75H7.05768ZM7.05768 4.74995C6.84518 4.74995 6.66705 4.67805 6.5233 4.53425C6.37957 4.39043 6.3077 4.21223 6.3077 3.99965C6.3077 3.78705 6.37957 3.60896 6.5233 3.46538C6.66705 3.32179 6.84518 3.25 7.05768 3.25H16.75C16.9625 3.25 17.1406 3.3219 17.2843 3.4657C17.4281 3.60952 17.5 3.78772 17.5 4.0003C17.5 4.2129 17.4281 4.39099 17.2843 4.53458C17.1406 4.67816 16.9625 4.74995 16.75 4.74995H7.05768Z" fill="#8F95B2"/>
</svg>
