<svg width="20" height="16" viewBox="0 0 20 16" fill="none" xmlns="http://www.w3.org/2000/svg">
<path d="M7.49021 8.74995V11C7.49021 11.2128 7.562 11.391 7.70559 11.5346C7.84917 11.6782 8.02737 11.75 8.24018 11.75C8.453 11.75 8.6312 11.6782 8.77479 11.5346C8.91837 11.391 8.99016 11.2128 8.99016 11V8.74995H11.2402C11.453 8.74995 11.6312 8.67816 11.7748 8.53458C11.9184 8.39099 11.9902 8.21279 11.9902 7.99998C11.9902 7.78716 11.9184 7.60896 11.7748 7.46538C11.6312 7.32179 11.453 7.25 11.2402 7.25H8.99016V4.99998C8.99016 4.78716 8.91837 4.60896 8.77479 4.46538C8.6312 4.32179 8.453 4.25 8.24018 4.25C8.02737 4.25 7.84917 4.32179 7.70559 4.46538C7.562 4.60896 7.49021 4.78716 7.49021 4.99998V7.25H5.24018C5.02737 7.25 4.84917 7.32179 4.70558 7.46538C4.562 7.60896 4.49021 7.78716 4.49021 7.99998C4.49021 8.21279 4.562 8.39099 4.70558 8.53458C4.84917 8.67816 5.02737 8.74995 5.24018 8.74995H7.49021ZM2.54791 15.5C2.04278 15.5 1.61521 15.325 1.26521 14.975C0.915226 14.625 0.740234 14.1974 0.740234 13.6923V2.3077C0.740234 1.80257 0.915226 1.375 1.26521 1.025C1.61521 0.675 2.04278 0.5 2.54791 0.5H13.9325C14.4376 0.5 14.8652 0.675 15.2152 1.025C15.5652 1.375 15.7402 1.80257 15.7402 2.3077V6.88463L18.4863 4.1385C18.6337 3.99107 18.7994 3.95421 18.9834 4.02793C19.1674 4.10164 19.2593 4.24234 19.2593 4.45003V11.5499C19.2593 11.7576 19.1674 11.8983 18.9834 11.972C18.7994 12.0457 18.6337 12.0089 18.4863 11.8615L15.7402 9.11533V13.6923C15.7402 14.1974 15.5652 14.625 15.2152 14.975C14.8652 15.325 14.4376 15.5 13.9325 15.5H2.54791ZM2.54791 14H13.9325C14.0222 14 14.096 13.9711 14.1536 13.9134C14.2113 13.8557 14.2402 13.782 14.2402 13.6923V2.3077C14.2402 2.21795 14.2113 2.14423 14.1536 2.08652C14.096 2.02882 14.0222 1.99998 13.9325 1.99998H2.54791C2.45816 1.99998 2.38443 2.02882 2.32673 2.08652C2.26903 2.14423 2.24018 2.21795 2.24018 2.3077V13.6923C2.24018 13.782 2.26903 13.8557 2.32673 13.9134C2.38443 13.9711 2.45816 14 2.54791 14Z" fill="#8F95B2"/>
</svg>
