<svg width="22" height="23" viewBox="0 0 22 23" fill="none" xmlns="http://www.w3.org/2000/svg">
<path d="M10.5603 13.4925L7.67173 10.604C7.63189 10.5641 7.6005 10.5196 7.57759 10.4705C7.55467 10.4214 7.54321 10.3687 7.54321 10.3125C7.54321 10.2002 7.58119 10.1026 7.65715 10.0198C7.7331 9.93693 7.83321 9.89551 7.95748 9.89551H14.0427C14.1669 9.89551 14.2671 9.93733 14.343 10.021C14.419 10.1046 14.4569 10.2022 14.4569 10.3138C14.4569 10.3417 14.414 10.4385 14.3282 10.6042L11.4399 13.4925C11.3735 13.5589 11.3049 13.6074 11.234 13.6379C11.1631 13.6685 11.0851 13.6838 11.0001 13.6838C10.915 13.6838 10.8371 13.6685 10.7662 13.6379C10.6953 13.6074 10.6267 13.5589 10.5603 13.4925Z" fill="#8F95B2"/>
</svg>
