<svg width="24" height="24" viewBox="0 0 24 24" fill="none" xmlns="http://www.w3.org/2000/svg">
<path d="M7.3077 20.5C6.81058 20.5 6.38502 20.323 6.03102 19.969C5.67701 19.615 5.5 19.1894 5.5 18.6923V6.00005H5.25C5.0375 6.00005 4.85938 5.92814 4.71563 5.78433C4.57188 5.64053 4.5 5.46233 4.5 5.24973C4.5 5.03715 4.57188 4.85906 4.71563 4.71548C4.85938 4.57188 5.0375 4.50008 5.25 4.50008H8.99997C8.99997 4.25521 9.08619 4.04656 9.25863 3.87413C9.43106 3.7017 9.63971 3.61548 9.88457 3.61548H14.1154C14.3602 3.61548 14.5689 3.7017 14.7413 3.87413C14.9138 4.04656 15 4.25521 15 4.50008H18.75C18.9625 4.50008 19.1406 4.57199 19.2843 4.7158C19.4281 4.85962 19.5 5.03782 19.5 5.2504C19.5 5.463 19.4281 5.6411 19.2843 5.78468C19.1406 5.92826 18.9625 6.00005 18.75 6.00005H18.5V18.6923C18.5 19.1894 18.3229 19.615 17.9689 19.969C17.6149 20.323 17.1894 20.5 16.6922 20.5H7.3077ZM17 6.00005H6.99997V18.6923C6.99997 18.7821 7.02882 18.8558 7.08653 18.9135C7.14423 18.9712 7.21795 19.0001 7.3077 19.0001H16.6922C16.782 19.0001 16.8557 18.9712 16.9134 18.9135C16.9711 18.8558 17 18.7821 17 18.6923V6.00005ZM10.1542 17.0001C10.3668 17.0001 10.5448 16.9282 10.6884 16.7844C10.832 16.6407 10.9038 16.4626 10.9038 16.2501V8.75003C10.9038 8.53755 10.8319 8.35943 10.6881 8.21568C10.5443 8.07193 10.3661 8.00005 10.1535 8.00005C9.9409 8.00005 9.76281 8.07193 9.61922 8.21568C9.47564 8.35943 9.40385 8.53755 9.40385 8.75003V16.2501C9.40385 16.4626 9.47576 16.6407 9.61957 16.7844C9.76337 16.9282 9.94157 17.0001 10.1542 17.0001ZM13.8465 17.0001C14.0591 17.0001 14.2371 16.9282 14.3807 16.7844C14.5243 16.6407 14.5961 16.4626 14.5961 16.2501V8.75003C14.5961 8.53755 14.5242 8.35943 14.3804 8.21568C14.2366 8.07193 14.0584 8.00005 13.8458 8.00005C13.6332 8.00005 13.4551 8.07193 13.3115 8.21568C13.1679 8.35943 13.0961 8.53755 13.0961 8.75003V16.2501C13.0961 16.4626 13.168 16.6407 13.3118 16.7844C13.4557 16.9282 13.6339 17.0001 13.8465 17.0001Z" fill="#8F95B2"/>
</svg>
