<svg width="20" height="17" viewBox="0 0 20 17" fill="none" xmlns="http://www.w3.org/2000/svg">
<path d="M9.99035 16.5596C9.77625 16.5596 9.56119 16.5211 9.34518 16.4442C9.12914 16.3672 8.93907 16.2467 8.77497 16.0826L7.33848 14.7769C5.56539 13.1602 3.98238 11.5721 2.58943 10.0125C1.19648 8.45283 0.5 6.78201 0.5 4.99998C0.5 3.58076 0.978525 2.39263 1.93558 1.43558C2.89263 0.478526 4.08076 0 5.49998 0C6.30638 0 7.10285 0.185901 7.8894 0.557701C8.67593 0.929501 9.37946 1.53335 9.99998 2.36925C10.6205 1.53335 11.324 0.929501 12.1105 0.557701C12.8971 0.185901 13.6936 0 14.5 0C15.9192 0 17.1073 0.478526 18.0644 1.43558C19.0214 2.39263 19.5 3.58076 19.5 4.99998C19.5 6.80124 18.7916 8.49066 17.375 10.0682C15.9583 11.6458 14.3788 13.2205 12.6365 14.7923L11.2154 16.0826C11.0513 16.2467 10.8596 16.3672 10.6404 16.4442C10.4211 16.5211 10.2045 16.5596 9.99035 16.5596Z" fill="#FF8D8D"/>
</svg>
