<svg width="22" height="23" viewBox="0 0 22 23" fill="none" xmlns="http://www.w3.org/2000/svg">
<path d="M10.56 9.50654L7.67149 12.395C7.63164 12.4349 7.60026 12.4794 7.57734 12.5285C7.55443 12.5777 7.54297 12.6303 7.54297 12.6865C7.54297 12.7988 7.58095 12.8964 7.65691 12.9792C7.73286 13.0621 7.83296 13.1035 7.95723 13.1035H14.0424C14.1667 13.1035 14.2668 13.0617 14.3428 12.978C14.4187 12.8944 14.4567 12.7968 14.4567 12.6853C14.4567 12.6574 14.4138 12.5606 14.328 12.3949L11.4396 9.50652C11.3733 9.44012 11.3046 9.39164 11.2337 9.36109C11.1629 9.33053 11.0849 9.31525 10.9998 9.31525C10.9148 9.31525 10.8368 9.33053 10.7659 9.36109C10.695 9.39164 10.6264 9.44013 10.56 9.50654Z" fill="#8F95B2"/>
</svg>
