<svg width="20" height="20" viewBox="0 0 20 20" fill="none" xmlns="http://www.w3.org/2000/svg">
<path d="M9.75043 15.5981C9.01054 16.338 8.11914 16.708 7.07623 16.708C6.03331 16.7081 5.14196 16.3382 4.40216 15.5984C3.66236 14.8586 3.29238 13.9672 3.29223 12.924C3.29209 11.8809 3.66196 10.9894 4.40185 10.2495L6.18094 8.47042C6.30616 8.34521 6.45349 8.28262 6.62293 8.28267C6.79237 8.2827 6.93973 8.34536 7.065 8.47063C7.19027 8.5959 7.25285 8.74319 7.25275 8.9125C7.25267 9.0818 7.19001 9.22906 7.0648 9.35428L5.28502 11.1341C4.79065 11.6284 4.54346 12.225 4.54346 12.9238C4.54346 13.6226 4.79087 14.2194 5.2857 14.7143C5.78053 15.2091 6.37734 15.4565 7.07614 15.4565C7.77494 15.4565 8.37152 15.2093 8.8659 14.7149L10.6457 12.9352C10.7709 12.8099 10.9182 12.7474 11.0876 12.7474C11.2571 12.7474 11.4045 12.8101 11.5297 12.9353C11.655 13.0606 11.7176 13.2079 11.7175 13.3772C11.7174 13.5465 11.6547 13.6938 11.5295 13.819L9.75043 15.5981ZM8.67391 12.2099C8.54869 12.3351 8.40136 12.3977 8.23193 12.3977C8.06248 12.3976 7.91513 12.335 7.78986 12.2097C7.66458 12.0844 7.602 11.9371 7.60209 11.7678C7.60218 11.5985 7.66483 11.4513 7.79005 11.326L11.3256 7.79051C11.4508 7.6653 11.5981 7.6027 11.7676 7.60273C11.937 7.60278 12.0844 7.66544 12.2096 7.7907C12.3349 7.91598 12.3975 8.06327 12.3974 8.23257C12.3973 8.40188 12.3347 8.54915 12.2094 8.67437L8.67391 12.2099ZM13.8185 11.53C13.6933 11.6552 13.546 11.7178 13.3766 11.7177C13.2071 11.7177 13.0598 11.6551 12.9345 11.5298C12.8092 11.4045 12.7466 11.2572 12.7467 11.0879C12.7468 10.9186 12.8095 10.7713 12.9347 10.6461L14.7145 8.86636C15.2088 8.37198 15.456 7.7754 15.456 7.0766C15.456 6.3778 15.2086 5.78099 14.7138 5.28616C14.219 4.79133 13.6222 4.54392 12.9234 4.54392C12.2246 4.54392 11.628 4.79111 11.1336 5.28548L9.35382 7.06526C9.2286 7.19047 9.08128 7.25306 8.91185 7.25302C8.7424 7.25298 8.59504 7.19033 8.46977 7.06506C8.3445 6.93979 8.28191 6.79249 8.28201 6.62318C8.28209 6.45388 8.34475 6.30662 8.46996 6.1814L10.2491 4.40231C10.9889 3.66242 11.8804 3.29244 12.9233 3.29237C13.9662 3.2923 14.8575 3.66217 15.5973 4.40197C16.3371 5.14177 16.7071 6.03323 16.7073 7.07636C16.7074 8.11949 16.3375 9.011 15.5976 9.75089L13.8185 11.53Z" fill="#4CBFA4"/>
</svg>
