<svg width="25" height="25" viewBox="0 0 25 25" fill="none" xmlns="http://www.w3.org/2000/svg">
<path d="M9.83849 12.4997C9.83849 12.3791 9.85773 12.267 9.89619 12.1631C9.93466 12.0593 10.0007 11.9606 10.0943 11.867L14.5885 7.37276C14.7269 7.23429 14.901 7.16346 15.1106 7.16026C15.3202 7.15704 15.4975 7.22788 15.6423 7.37276C15.7872 7.51763 15.8596 7.69326 15.8596 7.89966C15.8596 8.10606 15.7872 8.28169 15.6423 8.42656L11.5692 12.4997L15.6423 16.5728C15.7808 16.7112 15.8516 16.8852 15.8548 17.0949C15.858 17.3045 15.7872 17.4817 15.6423 17.6266C15.4975 17.7714 15.3218 17.8439 15.1154 17.8439C14.909 17.8439 14.7334 17.7714 14.5885 17.6266L10.0943 13.1323C10.0007 13.0388 9.93466 12.94 9.89619 12.8362C9.85773 12.7324 9.83849 12.6202 9.83849 12.4997Z" fill="#8F95B2"/>
</svg>
