<svg width="25" height="25" viewBox="0 0 25 25" fill="none" xmlns="http://www.w3.org/2000/svg">
<path d="M15.1615 12.5003C15.1615 12.6209 15.1423 12.733 15.1038 12.8369C15.0653 12.9407 14.9993 13.0394 14.9057 13.133L10.4115 17.6272C10.2731 17.7657 10.099 17.8365 9.88941 17.8397C9.67979 17.843 9.50255 17.7721 9.35768 17.6272C9.21281 17.4824 9.14038 17.3067 9.14038 17.1003C9.14038 16.8939 9.21281 16.7183 9.35768 16.5734L13.4308 12.5003L9.35768 8.42724C9.21923 8.28879 9.1484 8.11476 9.14518 7.90514C9.14198 7.69554 9.21281 7.51831 9.35768 7.37344C9.50255 7.22856 9.67819 7.15611 9.8846 7.15611C10.091 7.15611 10.2666 7.22856 10.4115 7.37344L14.9057 11.8677C14.9993 11.9612 15.0653 12.06 15.1038 12.1638C15.1423 12.2676 15.1615 12.3798 15.1615 12.5003Z" fill="#8F95B2"/>
</svg>
